<?xml version="1.0" encoding="iso-8859-1"?>
<!-- Generator: Adobe Illustrator 19.0.0, SVG Export Plug-In . SVG Version: 6.00 Build 0)  -->
<svg xmlns="http://www.w3.org/2000/svg" xmlns:xlink="http://www.w3.org/1999/xlink" version="1.1" id="Capa_1" x="0px" y="0px" viewBox="0 0 480 480" style="enable-background:new 0 0 480 480;" xml:space="preserve" width="512px" height="512px">
<g>
	<g>
		<path d="M304,160h96v40.472C364.056,204.464,336,235,336,272c0,19.32,7.912,38.08,21.68,51.416    C371.168,336.688,389.04,344,408,344c18.96,0,36.832-7.312,50.28-20.544C472.088,310.08,480,291.32,480,272    c0-37-28.056-67.536-64-71.528V160h8c4.424,0,8-3.576,8-8v-48c0-4.424-3.576-8-8-8H299.32c5.576-9.648,8.68-20.696,8.68-32    c0-35.288-28.712-64-64-64c-35.288,0-64,28.712-64,64c0,11.304,3.104,22.36,8.672,32H56c-4.424,0-8,3.576-8,8v48    c0,4.424,3.576,8,8,8h8v40.472C28.056,204.464,0,235,0,272c0,19.32,7.912,38.08,21.68,51.416C35.168,336.688,53.04,344,72,344    s36.832-7.312,50.28-20.544C136.088,310.08,144,291.32,144,272c0-37-28.056-67.536-64-71.528V160h96v216H0v16h184h41.424    l-48.176,75.704c-1.568,2.472-1.664,5.584-0.264,8.152C178.392,478.408,181.08,480,184,480h112c2.92,0,5.608-1.592,7.016-4.152    c1.4-2.56,1.304-5.68-0.264-8.152L254.576,392H296h184v-16H304V160z M400,296c-4.416,0-8-3.584-8-8h-16c0,13.232,10.768,24,24,24    v15.368c-11.712-1.672-22.552-6.944-31.144-15.4C358.144,301.584,352,287.016,352,272c0-28.152,20.912-51.456,48-55.36V232    c-13.232,0-24,10.768-24,24s10.768,24,24,24h16c4.416,0,8,3.584,8,8c0,4.416-3.584,8-8,8H400z M464,272    c0,15.016-6.144,29.584-16.896,40.008c-8.552,8.416-19.392,13.688-31.104,15.36V312c13.232,0,24-10.768,24-24s-10.768-24-24-24    h-16c-4.416,0-8-3.584-8-8c0-4.416,3.584-8,8-8h16c4.416,0,8,3.584,8,8h16c0-13.232-10.768-24-24-24v-15.36    C443.088,220.544,464,243.848,464,272z M244,16c26.472,0,48,21.528,48,48c0,12.872-5.264,25.36-14.496,34.296    C268.528,107.136,256.632,112,244,112c-12.632,0-24.528-4.864-33.552-13.752C201.264,89.36,196,76.872,196,64    C196,37.528,217.528,16,244,16z M128,272c0,15.016-6.144,29.584-16.896,40.008C100.624,322.32,86.744,328,72,328    s-28.624-5.68-39.144-16.032C22.144,301.584,16,287.016,16,272c0-30.872,25.128-56,56-56S128,241.128,128,272z M281.432,464    h-82.864L240,398.896L281.432,464z M288,152v224h-40V232h-16v144h-40V152c0-4.424-3.576-8-8-8H64v-32h137.848    c11.648,10.304,26.456,16,42.152,16c15.72,0,30.544-5.712,42.16-16H416v32H296C291.576,144,288,147.576,288,152z" fill="#FFFFFF"/>
	</g>
</g>
<g>
	<g>
		<path d="M64,232v32H32v16h40c4.424,0,8-3.576,8-8v-40H64z" fill="#FFFFFF"/>
	</g>
</g>
<g>
</g>
<g>
</g>
<g>
</g>
<g>
</g>
<g>
</g>
<g>
</g>
<g>
</g>
<g>
</g>
<g>
</g>
<g>
</g>
<g>
</g>
<g>
</g>
<g>
</g>
<g>
</g>
<g>
</g>
</svg>
